<svg width="512" height="512" viewBox="0 0 512 512" fill="none" xmlns="http://www.w3.org/2000/svg">
<path d="M0 256C0 45.184 45.184 0 256 0C466.816 0 512 45.184 512 256C512 466.816 466.816 512 256 512C45.184 512 0 466.816 0 256Z" fill="#3A31D8"/>
<path fill-rule="evenodd" clip-rule="evenodd" d="M160 160H96V352H160V416H352V352H416L346.537 288C333.359 325.286 297.799 352 256 352C202.981 352 160 309.019 160 256C160 202.981 202.981 160 256 160C297.799 160 333.359 186.714 346.537 224L416 160H352V96H160V160Z" fill="white"/>
</svg>
