<svg width="37" height="5" viewBox="0 0 37 5" fill="none" xmlns="http://www.w3.org/2000/svg">
<path d="M24 1V0H20V5H24V4H21V1H24Z" fill="#0DC922"/>
<path d="M24 4H25V1H24V2.5V4Z" fill="#0DC922"/>
<path fill-rule="evenodd" clip-rule="evenodd" d="M26 1H27V0H30V1H31V4H30V5H27V4H26V1ZM28.5 1C27.6716 1 27 1.67157 27 2.5C27 3.32843 27.6716 4 28.5 4C29.3284 4 30 3.32843 30 2.5C30 1.67157 29.3284 1 28.5 1Z" fill="#0DC922"/>
<path fill-rule="evenodd" clip-rule="evenodd" d="M1 0H5V1H1V0ZM1 4H0V1H1V4ZM1 4H5V5H1V4ZM6 0H11V1H7V2H10V3H7V4H11V5H6V0ZM15 2H13V0H12V5H13V3H15V4H16V5H17V4H16V3H15V2ZM16 1H15V2H16V1ZM16 1V0H17V1H16ZM19 0H18V5H19V0Z" fill="white"/>
<path d="M32 0H37V1H35V5H34V1H32V0Z" fill="#0DC922"/>
</svg>
